<?xml version="1.0" encoding="UTF-8" standalone="no"?>
<!-- Created with Inkscape (http://www.inkscape.org/) -->

<svg
   xmlns:dc="http://purl.org/dc/elements/1.1/"
   xmlns:cc="http://creativecommons.org/ns#"
   xmlns:rdf="http://www.w3.org/1999/02/22-rdf-syntax-ns#"
   xmlns:svg="http://www.w3.org/2000/svg"
   xmlns="http://www.w3.org/2000/svg"
   xmlns:sodipodi="http://sodipodi.sourceforge.net/DTD/sodipodi-0.dtd"
   xmlns:inkscape="http://www.inkscape.org/namespaces/inkscape"
   width="100mm"
   height="68mm"
   viewBox="0 0 354.33074 240.94486"
   id="svg4143"
   version="1.1"
   inkscape:version="0.91 r13725"
   sodipodi:docname="opensource.svg">
  <defs
     id="defs4145" />
  <sodipodi:namedview
     id="base"
     pagecolor="#ffffff"
     bordercolor="#666666"
     borderopacity="1.0"
     inkscape:pageopacity="0.0"
     inkscape:pageshadow="2"
     inkscape:zoom="0.9899495"
     inkscape:cx="179.43898"
     inkscape:cy="130.49754"
     inkscape:document-units="px"
     inkscape:current-layer="layer1"
     showgrid="false"
     inkscape:window-width="1680"
     inkscape:window-height="987"
     inkscape:window-x="-8"
     inkscape:window-y="-8"
     inkscape:window-maximized="1"
     fit-margin-top="0"
     fit-margin-left="0"
     fit-margin-right="0"
     fit-margin-bottom="0" />
  <metadata
     id="metadata4148">
    <rdf:RDF>
      <cc:Work
         rdf:about="">
        <dc:format>image/svg+xml</dc:format>
        <dc:type
           rdf:resource="http://purl.org/dc/dcmitype/StillImage" />
        <dc:title></dc:title>
      </cc:Work>
    </rdf:RDF>
  </metadata>
  <g
     inkscape:label="Layer 1"
     inkscape:groupmode="layer"
     id="layer1"
     transform="translate(-0.12575917,-0.90924019)">
    <path
       style="fill:none;stroke:#000000;stroke-width:0.99073797;stroke-linejoin:miter;stroke-miterlimit:4;stroke-dasharray:none;stroke-opacity:1"
       d="m 177.29113,3.795453 c -64.75119,0 -117.242311,52.490947 -117.242311,117.242517 0,50.25905 31.63369,93.11682 76.072141,109.78745 l 27.01777,-72.04807 c -15.27566,-5.72982 -26.14953,-20.4629 -26.14953,-37.73938 0,-22.25826 18.04413,-40.302475 40.30193,-40.302475 22.2578,0 40.30271,18.044215 40.30271,40.302475 0,17.27648 -10.87466,32.00956 -26.15033,37.73938 l 27.01777,72.04807 c 44.43768,-16.67063 76.07215,-59.5284 76.07215,-109.78745 0,-64.75157 -52.49034,-117.242517 -117.2423,-117.242517 z"
       id="path8"
       inkscape:connector-curvature="0" />
    <path
       style="opacity:1;fill:none;fill-opacity:1;stroke:#000000;stroke-width:0.99073797;stroke-linejoin:miter;stroke-miterlimit:4;stroke-dasharray:none;stroke-opacity:1"
       d="m 192.55327,121.38167 a 15.262144,15.262144 0 0 1 -15.26216,15.26214 15.262144,15.262144 0 0 1 -15.26214,-15.26214 15.262144,15.262144 0 0 1 15.26214,-15.26215 15.262144,15.262144 0 0 1 15.26216,15.26215 z"
       id="path4720"
       inkscape:connector-curvature="0" />
  </g>
</svg>
